<svg xmlns="http://www.w3.org/2000/svg" viewBox="0 0 63.84 34.93"><defs><style>.cls-1{fill:#004447;}.cls-2,.cls-3{fill:none;}.cls-2{stroke:#004447;stroke-miterlimit:10;stroke-width:4px;}</style></defs><g id="Layer_2" data-name="Layer 2"><g id="Layer_1-2" data-name="Layer 1"><path class="cls-1" d="M1,20.59a4.14,4.14,0,0,1-1-3V.45L4,0V17.5c0,.65.27,1,.81,1a1.73,1.73,0,0,0,.78-.17l.81,2.83a6.16,6.16,0,0,1-2.54.5A3.73,3.73,0,0,1,1,20.59Z"/><path class="cls-1" d="M20.65,15H11.38a4.41,4.41,0,0,0,1.09,2.86,3.43,3.43,0,0,0,2.44.84,5.3,5.3,0,0,0,1.79-.31,8.44,8.44,0,0,0,1.82-1l1.65,2.24a8.73,8.73,0,0,1-5.63,2,6.82,6.82,0,0,1-5.37-2.1,8.21,8.21,0,0,1-1.88-5.68,10,10,0,0,1,.8-4.07,6.55,6.55,0,0,1,2.32-2.85,6.32,6.32,0,0,1,3.63-1A6.24,6.24,0,0,1,19,7.9a8.08,8.08,0,0,1,1.76,5.54C20.73,13.63,20.7,14.14,20.65,15Zm-3.87-2.66c0-2.46-.88-3.7-2.66-3.7a2.26,2.26,0,0,0-1.91.91,5.59,5.59,0,0,0-.83,3h5.4Z"/><path class="cls-1" d="M36.62,18a2,2,0,0,0,1,.81l-1.18,2.88a6.4,6.4,0,0,1-2.29-.82,3.26,3.26,0,0,1-1.23-1.47A6.25,6.25,0,0,1,31,21a5.25,5.25,0,0,1-6.67-1.51,9.89,9.89,0,0,1-1.49-5.74,10.45,10.45,0,0,1,.74-4.08,6.32,6.32,0,0,1,2.13-2.78,5.33,5.33,0,0,1,3.26-1A4.65,4.65,0,0,1,32.67,7.7l.22-1.34h3.48v10.1A3.31,3.31,0,0,0,36.62,18Zm-5.52.28a4.9,4.9,0,0,0,1.29-1.37V10.28a4.58,4.58,0,0,0-1.22-1.07,2.79,2.79,0,0,0-1.41-.36,2.34,2.34,0,0,0-2.09,1.2,7.35,7.35,0,0,0-.74,3.73,7.62,7.62,0,0,0,.69,3.78,2.13,2.13,0,0,0,1.91,1.12A2.76,2.76,0,0,0,31.1,18.23Z"/><path class="cls-1" d="M45.29,3.44A2.25,2.25,0,0,0,44.86,5V6.36h3.53l-.45,2.8H44.86v12h-4v-12H38.53V6.36h2.35V4.87A4.61,4.61,0,0,1,42.3,1.36a5.53,5.53,0,0,1,4-1.36,8.8,8.8,0,0,1,3.92.9L49.14,3.53A5.55,5.55,0,0,0,46.73,3,1.9,1.9,0,0,0,45.29,3.44Z"/><path class="cls-1" d="M59.05,21.22a8.86,8.86,0,0,1-2.82,4.37A9.05,9.05,0,0,1,51,27.36l-.42-2.86a6.86,6.86,0,0,0,3.12-1,5.14,5.14,0,0,0,1.64-2.29H54L49.39,6.36h4.23l3,12.26L59.72,6.36h4.12Z"/><path class="cls-2" d="M34.36,24.5c0,5.45-5.18,8.43-11.57,8.43S11.21,30,11.21,24.5"/><line class="cls-3" x1="36.39" y1="29.95" x2="7.29" y2="29.95"/></g></g></svg>