<svg xmlns="http://www.w3.org/2000/svg" viewBox="0 0 85 45.85"><defs><style>.cls-1{fill:#44bd32;}</style></defs><g id="Layer_2" data-name="Layer 2"><g id="Layer_1-2" data-name="Layer 1"><path class="cls-1" d="M1.34,27.42a5.53,5.53,0,0,1-1.34-4V.6L5.29,0V23.3c0,.87.36,1.31,1.09,1.31a2.31,2.31,0,0,0,1-.23L8.5,28.15a8.31,8.31,0,0,1-3.39.67A5,5,0,0,1,1.34,27.42Z"/><path class="cls-1" d="M27.49,20H15.15a5.9,5.9,0,0,0,1.45,3.8,4.6,4.6,0,0,0,3.25,1.12,7,7,0,0,0,2.39-.41,11.48,11.48,0,0,0,2.42-1.31l2.2,3a11.62,11.62,0,0,1-7.5,2.69c-3.1,0-5.49-.93-7.15-2.8a10.91,10.91,0,0,1-2.5-7.57A13.24,13.24,0,0,1,10.77,13a8.7,8.7,0,0,1,3.1-3.78,8.36,8.36,0,0,1,4.82-1.38,8.31,8.31,0,0,1,6.56,2.64q2.36,2.65,2.35,7.38C27.6,18.14,27.57,18.83,27.49,20ZM22.35,16.4q0-4.92-3.54-4.92a3,3,0,0,0-2.56,1.21,7.47,7.47,0,0,0-1.1,3.94h7.2Z"/><path class="cls-1" d="M48.76,23.9A2.63,2.63,0,0,0,50,25l-1.57,3.84a8.82,8.82,0,0,1-3.06-1.1,4.36,4.36,0,0,1-1.64-2A8.22,8.22,0,0,1,41.21,28a6.6,6.6,0,0,1-3.23.82A6.53,6.53,0,0,1,32.33,26a13.07,13.07,0,0,1-2-7.65,13.93,13.93,0,0,1,1-5.42,8.48,8.48,0,0,1,2.83-3.71A7.15,7.15,0,0,1,38.5,7.87a6.21,6.21,0,0,1,5,2.38l.3-1.79h4.62V21.92A4.34,4.34,0,0,0,48.76,23.9Zm-7.35.37a6.51,6.51,0,0,0,1.72-1.83V13.68a6.11,6.11,0,0,0-1.62-1.41,3.65,3.65,0,0,0-1.89-.49,3.09,3.09,0,0,0-2.77,1.6,9.71,9.71,0,0,0-1,5,10.22,10.22,0,0,0,.91,5,2.86,2.86,0,0,0,2.56,1.49A3.63,3.63,0,0,0,41.41,24.27Z"/><path class="cls-1" d="M60.31,4.58a3,3,0,0,0-.58,2.06V8.46h4.7l-.6,3.73h-4.1v16h-5.3v-16H51.3V8.46h3.13v-2a6.17,6.17,0,0,1,1.89-4.68A7.39,7.39,0,0,1,61.67,0a11.88,11.88,0,0,1,5.22,1.19L65.43,4.7A7.45,7.45,0,0,0,62.23,4,2.49,2.49,0,0,0,60.31,4.58Z"/><path class="cls-1" d="M78.62,28.26a11.78,11.78,0,0,1-3.74,5.82A12.13,12.13,0,0,1,68,36.42l-.56-3.8a9.17,9.17,0,0,0,4.16-1.34,7,7,0,0,0,2.18-3.06H71.91L65.76,8.46h5.63l4,16.33L79.52,8.46H85Z"/><path class="cls-1" d="M30.34,45.85c-10.42,0-17.42-5.32-17.42-13.23h4c0,6.81,7.23,9.23,13.42,9.23s13.42-2.42,13.42-9.23h4C47.76,40.53,40.76,45.85,30.34,45.85Z"/></g></g></svg>