<?xml version="1.0" encoding="utf-8"?>
<!-- Generator: Adobe Illustrator 25.1.0, SVG Export Plug-In . SVG Version: 6.00 Build 0)  -->
<svg version="1.1" id="Layer_1" xmlns="http://www.w3.org/2000/svg" xmlns:xlink="http://www.w3.org/1999/xlink" x="0px" y="0px"
	 viewBox="0 0 150 45.1" style="enable-background:new 0 0 150 45.1;" xml:space="preserve">
<style type="text/css">
	.st0{fill:#191919;}
	.st1{fill:#00C80A;}
</style>
<path class="st0" d="M33.4,34.8c0,0.9-0.9,1.1-1.6,1.1h-4.8c-1.9,0-3-0.3-4-1.7c-1.3-2.2-2.4-4.6-3.3-7c-1.6-3.7-3.6-6.7-7.3-6.7
	c-0.3,0-0.5,0-0.8,0c-0.4,0.1-0.6,0.4-0.6,0.8c0,0,0,0,0,0v4.9c0,3.3,0.2,4.3,0.5,4.9c0.3,0.9,0.9,1.6,1.8,2
	c0.7,0.4,1.1,0.7,1.1,1.4S13.8,36,12.8,36H1.9c-1,0-1.9-0.5-1.9-1.3s0.5-1,1.2-1.4c0.8-0.4,1.4-1.1,1.8-2c0.2-0.7,0.4-1.7,0.4-4.9
	V8.3c0-1.7-0.1-2.8-1.3-3.5C1.2,4.3,0.3,4.2,0.3,3.2c0-0.6,0.5-1.1,1.6-1.1h9.7c1.3,0,2.7,0,4,0c3.6,0,7.4,0.3,9.9,2.2
	c1.9,1.4,3,3.7,2.9,6.1c0,1.1-0.2,2.2-0.7,3.2c-1.4,2.6-4,4.3-7,4.5c-0.3,0-0.5,0.1-0.5,0.3s0.1,0.3,0.5,0.3c4,0.5,5.5,3.2,7.8,8.4
	c2,4.6,2.5,5.3,3.4,6C32.5,33.6,33.4,33.9,33.4,34.8z M19.9,11.2c0-4.7-3.6-5.2-5.9-5.2h-2.1c-0.3-0.1-0.7,0.2-0.7,0.5
	c0,0.1,0,0.1,0,0.2v9.4c0,0.3,0.1,0.5,0.4,0.6c0.1,0,0.1,0,0.2,0h2.1C17,16.7,19.9,15.3,19.9,11.2z"/>
<path class="st0" d="M49.8,34.7c0,0.8-0.8,1.3-1.8,1.3H37.8c-1.1,0-1.8-0.5-1.8-1.3s0.5-1,1.2-1.4c0.8-0.4,1.4-1.1,1.8-2
	c0.2-0.7,0.5-1.7,0.5-5v-6.2c0-1.1-0.1-2.1-0.4-3.1c-0.3-0.8-1-1.3-1.8-1.6c-0.5-0.2-1.5-0.5-1.5-1.3c0-0.7,0.5-1,1.6-1.3
	c2.2-0.5,4.9-1.3,6.6-1.9c0.4-0.2,0.8-0.3,1.2-0.3c0.6,0,1.2,0.3,1.2,1.6v14c0,3.3,0.2,4.3,0.5,5c0.3,0.9,0.9,1.6,1.8,2
	C49.3,33.7,49.8,34,49.8,34.7z M42.9,9.1c-1.5,0-4.5-3.1-4.5-4.6S41.5,0,42.9,0s4.5,3.1,4.5,4.5S44.3,9.1,42.9,9.1z"/>
<path class="st0" d="M79.6,22.3c0,7-4.4,14.2-12.4,14.2c-1.9,0-3.8-0.4-5.5-1.2c-0.1,0-0.2,0-0.2,0.2v0.5c0,2.8,0.2,3.8,0.5,4.4
	c0.3,0.8,0.9,1.6,1.7,2c0.6,0.4,1.2,0.6,1.2,1.4s-0.8,1.2-1.8,1.2H52.9c-1,0-1.8-0.4-1.8-1.2s0.6-1,1.2-1.4c0.8-0.4,1.4-1.2,1.7-2
	c0.2-0.7,0.5-1.7,0.5-4.8V20.2c0.1-1.1,0-2.1-0.3-3.1c-0.3-0.8-0.9-1.4-1.8-1.6C51.9,15.2,51,15,51,14.3s0.5-1.1,1.6-1.4
	c2.2-0.5,4.8-1.3,6.5-1.9c0.4-0.2,0.8-0.3,1.2-0.3c0.6,0,1.2,0.3,1.2,1.6v1.9c0,0.3,0.1,0.5,0.3,0.5c0.2,0,0.3-0.1,0.4-0.3
	c1.8-2.3,4.6-3.7,7.5-3.7c1.6,0,3.3,0.5,4.7,1.3C78,14.2,79.6,18.2,79.6,22.3z M72.2,24.4c0-5.2-2.3-8.6-5.3-8.6s-5.4,2.7-5.4,8.2
	c0,5.8,2.4,8.8,5.4,8.8C70.7,32.8,72.2,29,72.2,24.4z"/>
<path class="st0" d="M105.4,30.7c0,1-1.4,2.6-2.8,3.5c-2.3,1.5-5,2.3-7.8,2.3c-6.9,0-12.1-4.8-12.1-12.2c0-7.1,5.3-13.5,12.7-13.5
	c5.3,0,10.6,3.7,10.6,9.7c0,2.8-1.2,3.2-4,3.2H90.4c-0.3,0-0.5,0.1-0.5,0.4c0,0.2,0,0.4,0,0.6c0.1,1.3,0.6,2.5,1.2,3.5
	c1.5,2.3,4.1,3.7,6.9,3.5c3.7,0,5.1-1.9,6.2-1.9C104.9,29.7,105.4,30.1,105.4,30.7C105.4,30.7,105.4,30.7,105.4,30.7z M89.9,19.6
	c0,0.2,0.2,0.4,0.4,0.4c0,0,0,0,0.1,0h5.5c1.7,0,3-0.3,3-2.1c0-2.1-1.8-3.7-3.8-3.7c0,0,0,0,0,0c-2.7,0-4.6,1.9-5.1,4.9
	C89.9,19.3,89.9,19.5,89.9,19.6z"/>
<path class="st1" d="M143.1,31.4c-0.1-0.6-0.2-1.2-0.4-1.8c-0.3-0.9-0.9-1.6-1.7-2.1c-1.3-0.6-2.8-0.5-4,0.2
	c-2.7,1.2-4.2-0.1-5.9-1.6s-4-3.5-6.7-0.4c-0.8,1-1.2,2.2-1.3,3.5c-0.1,0.8-0.1,1.5-0.1,2.3V32l0.5,0.3c5.2,3.7,12.1,4,17.7,1
	c0.3-0.1,0.6-0.3,0.8-0.5l0.7-0.5l0.1,0l0.5-0.4L143.1,31.4z"/>
<path class="st1" d="M127.4,12.2c-1.4-1.7-2.4-3.9-1.3-6.6c0,0,0-0.1,0-0.1c0.1-0.2,0.1-0.3,0.2-0.4l0.8-2.5
	c-0.8,0.3-1.7,0.7-2.4,1.1c-3.5,2-6.2,5.2-7.6,9c-0.5,1.4-0.8,2.8-0.9,4.3c0,0.4,0,0.7-0.1,1.1v0.4c0,0.2,0,0.4,0,0.6l1,0.1
	c0.4,0.1,0.9,0.1,1.3,0.2c1.3,0.1,2.6,0.2,3.9,0.2c2.8,0,4.3-0.1,5.3-1C130.7,15.9,128.9,13.8,127.4,12.2z"/>
<path class="st1" d="M140.4,3.2l-0.7-0.3l-0.5,0.4c-0.5,0.4-1,0.8-1.4,1.2c-2.8,2.5-4.2,4.6-4.3,6.2c-0.3,4.1,2.8,4.3,5,4.5
	s4.3,0.3,5.4,3c0.4,1.3,1.2,2.3,2.4,2.9c0.4,0.2,0.8,0.2,1.2,0.2h0.1c0.6,0,1.3-0.2,1.9-0.5l0.6-0.3l0,0L150,20c0-0.5,0.1-1,0.1-1.5
	C150,12,146.2,6,140.4,3.2z"/>
</svg>
