<svg xmlns="http://www.w3.org/2000/svg" viewBox="0 0 1048.94 446.91"><defs><style>.cls-1{fill:#065a60;}</style></defs><g id="Layer_2" data-name="Layer 2"><g id="Layer_1-2" data-name="Layer 1"><path class="cls-1" d="M331.43,345c0,8.92-8.92,11.27-15.5,11.27H268.52c-18.31,0-30-2.82-39.43-16.43-7.51-10.33-17.37-33.33-32.39-69-15.5-37.08-36.15-66.19-72.3-66.19a42,42,0,0,0-7.51.48c-3.76.93-5.63,2.81-5.63,7.51v48.82c0,32.39,2.34,42.72,4.69,48.82,2.82,8.46,8.92,15.5,17.37,20.19,6.57,3.75,11.27,6.57,11.27,13.62,0,8-7.52,12.2-17.84,12.2H18.31C8,356.31,0,352.08,0,344.11c0-7.05,5.16-9.87,11.74-13.62,8.91-5.17,14.55-12.2,17.37-20.19,2.34-6.57,4.22-16.43,4.22-48.82V82.15c0-16.43-.94-27.23-13.14-34.27-8.45-5.17-16.91-6.57-16.91-16,0-5.63,5.17-10.8,15.5-10.8h95.76c12.68,0,26.29-.47,39.91-.47,35.67,0,73.23,2.82,98.58,22.06,21.6,16.44,29.11,39.44,29.11,60.09,0,12.21-2.35,23.48-6.58,31.93-12.67,26.76-40.37,41.31-69.48,44.59-2.81.47-5.16,1-5.16,2.82s.94,2.82,4.7,3.28c39.43,5.17,54.92,31.93,77,83.57,19.72,46,24.88,52.12,33.33,59.15C321.57,332.83,331.43,336.13,331.43,345ZM197.63,111.26c0-46.48-36.14-51.64-58.2-51.64H118.3q-7,0-7,7v93.42c0,3.75,1.87,5.63,5.63,5.63H138C168.53,165.71,197.63,151.63,197.63,111.26Z"/><path class="cls-1" d="M493.88,344.11c0,8-8,12.2-18.31,12.2H374.65c-10.33,0-18.32-4.23-18.32-12.2,0-7.05,5.17-9.87,11.74-13.62,8.92-5.17,14.55-12.2,17.37-20.19,2.35-6.57,4.69-16.43,4.69-49.29V200c0-13.61-.46-23.47-3.28-31s-8-11.74-17.37-15.49c-5.16-2.35-14.56-4.7-14.56-13.15,0-6.57,4.7-9.86,15.5-12.67,21.59-5.17,48.35-12.68,65.25-18.78,2.82-.94,7.51-2.82,12.21-2.82,6.1,0,12.2,3.29,12.2,16V261c0,32.39,2.35,42.72,4.7,49.29,2.81,8,8.45,15,17.37,20.19C488.25,334.24,493.88,336.6,493.88,344.11ZM425.34,89.66c-14.55,0-45.06-31-45.06-45.07S410.79,0,425.34,0c14.09,0,44.6,30.51,44.6,44.59C469.94,59.15,439.43,89.66,425.34,89.66Z"/><path class="cls-1" d="M788.85,221.11c0,69-44.13,140.36-122.53,140.36-32.39,0-51.64-11.73-54.92-11.73-.94,0-1.88.47-1.88,2.34v5.17c0,28.16,2.35,37.56,4.7,43.66,2.81,8,8,14.55,16.89,20.18,6.1,3.76,11.74,6.1,11.74,13.62,0,8-8,12.2-17.84,12.2H524.55c-9.86,0-17.84-4.22-17.84-12.2,0-7.52,5.63-9.86,11.74-13.62,8.92-5.63,14.08-12.2,16.9-20.18C537.7,394.33,540,384.48,540,353V200c0-13.61-.47-23.47-2.82-31s-8-11.74-17.36-15.49c-5.17-2.35-14.55-4.7-14.55-12.21,0-7,4.69-10.8,15.49-13.61,21.59-5.17,47.41-12.68,64.31-18.78,2.82-.94,7.51-2.82,12.2-2.82,6.11,0,12.21,3.29,12.21,16v18.78c0,3.29,1.41,5.16,3.29,5.16,1.41,0,2.81-.93,4.22-2.81,17.37-21.59,44.6-37.09,74.17-37.09,15,0,31,4.22,46.48,13.14C773.36,140.36,788.85,180.27,788.85,221.11Zm-73.71,21.12c0-52.11-22.53-85-52.57-85-30.51,0-53.52,26.76-53.52,81.21.47,57.27,23.94,86.85,53.52,86.85C700.12,325.32,715.14,287.3,715.14,242.23Z"/><path class="cls-1" d="M1044.25,304.2c0,10.33-14.1,25.35-28.17,34.74C995,353,966.78,361.47,938.61,361.47c-68.53,0-120.17-47.41-120.17-121.12,0-70.41,52.11-134.26,125.34-134.26,53.05,0,105.16,37.09,105.16,95.77,0,27.23-12.21,31.45-39.91,31.45H896.36c-2.81,0-5.15.94-5.15,4.23a40,40,0,0,0,.46,5.63,81.71,81.71,0,0,0,12.21,35.21c16,24.88,40.37,35.2,68.54,35.2,37.09,0,50.22-19.23,61.5-19.23C1039.07,294.35,1044.25,298.56,1044.25,304.2ZM890.74,194.35c0,2.35,1.4,4.22,4.69,4.22h54.46c16.89,0,29.57-2.82,29.57-20.66,0-17.36-14.09-36.61-38-36.61-26.28,0-45.07,19.25-50.22,48.82A20.66,20.66,0,0,0,890.74,194.35Z"/></g></g></svg>