<svg xmlns="http://www.w3.org/2000/svg" viewBox="0 0 100 38.1"><defs><style>.cls-1{fill:#fff;}</style></defs><g id="Layer_2" data-name="Layer 2"><g id="Layer_26" data-name="Layer 26"><path class="cls-1" d="M12,29.22c0,.69-.69,1.06-1.58,1.06H1.7c-.89,0-1.58-.37-1.58-1.06s.45-.85,1-1.17a3.24,3.24,0,0,0,1.5-1.74c.21-.57.41-1.42.41-4.26V8.11a8.13,8.13,0,0,0-.28-2.68,2.31,2.31,0,0,0-1.5-1.34C.81,3.89,0,3.69,0,3c0-.57.41-.85,1.34-1.1A58,58,0,0,0,7,.24,3.46,3.46,0,0,1,8,0c.52,0,1.05.28,1.05,1.38V22.05a12.85,12.85,0,0,0,.4,4.26A3.33,3.33,0,0,0,11,28.05C11.51,28.37,12,28.58,12,29.22Z"/><path class="cls-1" d="M32.41,25.78c0,.89-1.22,2.19-2.43,3a12.41,12.41,0,0,1-6.69,1.94c-5.92,0-10.38-4.09-10.38-10.45,0-6.08,4.5-11.6,10.82-11.6,4.59,0,9.08,3.21,9.08,8.27,0,2.35-1.05,2.72-3.44,2.72H19.64c-.24,0-.44.08-.44.36a3.42,3.42,0,0,0,0,.49,7,7,0,0,0,1.05,3,6.62,6.62,0,0,0,5.92,3c3.2,0,4.33-1.66,5.31-1.66A.89.89,0,0,1,32.41,25.78ZM19.15,16.29a.36.36,0,0,0,.41.37h4.7c1.46,0,2.56-.24,2.56-1.78a3.23,3.23,0,0,0-3.29-3.17c-2.27,0-3.89,1.67-4.33,4.22A1.42,1.42,0,0,0,19.15,16.29Z"/><path class="cls-1" d="M56.06,28a2.34,2.34,0,0,1-1,1.62,5.8,5.8,0,0,1-3.49,1.13,3.9,3.9,0,0,1-4-3c0-.16,0-.24-.12-.24s-.09,0-.21.2a8.26,8.26,0,0,1-6.6,3.08c-3.21,0-6.41-1.74-6.41-5.39a5.69,5.69,0,0,1,2.92-4.94c2-1.18,4.78-1.91,6.69-2.76,1.29-.61,3-1.62,3-3.44a2.35,2.35,0,0,0-2.64-2.39,4.24,4.24,0,0,0-2.47.77c-2.23,1.49-2.39,3.81-4.13,3.81-1.34,0-1.79-.65-1.79-2.56a5.22,5.22,0,0,1,.77-3c1.34-1.7,5.68-2.11,7.74-2.11,4.18,0,9,1.91,9,6.85,0,2.72-.2,5.15-.2,7.79s0,3.68,1.82,3.77C55.65,27.12,56.06,27.36,56.06,28ZM46.9,19.78q0-.24-.12-.24c-.09,0-.13,0-.25.12-1.05.65-2.79,1.13-4.21,2.23a3.29,3.29,0,0,0-1.58,2.67A2.33,2.33,0,0,0,43.25,27a3.56,3.56,0,0,0,3.12-2c.53-1.1.53-2.31.53-4.74Z"/><path class="cls-1" d="M76.27,4.05c0,1.54-.21,2.88-1.71,2.88-1.66,0-2.27-3.73-4.9-3.73-2.8,0-3,4.14-3,6.37,0,.24.16.32.41.32.52,0,1.7,0,2.51-.08s1.58-.2,2.35-.2c.61,0,1.34.08,1.34.81a4.58,4.58,0,0,1-.17,1.05c-.24,1.14-.56,1.62-1.66,1.62-.77,0-1.38-.08-2.27-.12s-1.62,0-2,0-.49.16-.49.53v8.63a12.4,12.4,0,0,0,.41,4.26,3.08,3.08,0,0,0,1.45,1.7c.57.32,1,.57,1,1.17s-.69,1.06-1.54,1.06h-8.8c-.89,0-1.54-.37-1.54-1.06s.45-.89,1-1.17a3,3,0,0,0,1.5-1.7,13.67,13.67,0,0,0,.41-4.26c0-2.8,0-7.26,0-8.88,0-.2-.08-.28-.32-.28H57.78c-.4,0-.65-.12-.65-.57V10.5a.57.57,0,0,1,.65-.61H60.3c.24,0,.36-.08.4-.32A10.19,10.19,0,0,1,71.36,0,6.48,6.48,0,0,1,75,.89,3.8,3.8,0,0,1,76.27,4.05Z"/><path class="cls-1" d="M100,10.17a1.14,1.14,0,0,1-.61,1,7.27,7.27,0,0,0-2.51,2.31,26.09,26.09,0,0,0-2.15,4.37c-1.5,3.45-3.36,8.27-4.7,11.52-1.66,4-4.54,8.75-9.61,8.75C77.75,38.1,76,36.52,76,34c0-1.18.41-2.76,2-2.76s2,2.43,4.42,2.43A3.07,3.07,0,0,0,85,32a1,1,0,0,0,.21-.53.84.84,0,0,0-.09-.36L78.31,15a8,8,0,0,0-1.7-3,4.55,4.55,0,0,0-1.29-.77,1.1,1.1,0,0,1-.73-1c0-.56.36-1.09,1.54-1.09H84.8c.81,0,1.42.36,1.42,1s-.45.85-.93,1.1a1.66,1.66,0,0,0-1.1,1.5,4.27,4.27,0,0,0,.45,1.5l4,9c.08.2.12.24.2.24s.12,0,.21-.24l2.47-5.92a10,10,0,0,0,1-3.77c0-2.43-2.15-2.07-2.15-3.33,0-.81.81-1.09,1.58-1.09h6.53C99.27,9.12,100,9.44,100,10.17Z"/></g></g></svg>